<svg width="45" height="45" viewBox="0 0 45 45" fill="none" xmlns="http://www.w3.org/2000/svg">
<g clip-path="url(#clip0_684_3432)">
<path d="M22.4999 45C34.9263 45 44.9999 34.9264 44.9999 22.5C44.9999 10.0736 34.9263 0 22.4999 0C10.0735 0 -0.00012207 10.0736 -0.00012207 22.5C-0.00012207 34.9264 10.0735 45 22.4999 45Z" fill="#15E8FF"/>
<path d="M37.371 34.875V27.668C36.8085 26.2266 36.246 25.9453 36.246 25.9453C35.5428 24.9609 28.3358 22.3242 28.3358 22.3242L27.6327 22.6406L27.4921 23.1328L26.1913 27.668H18.8085L17.5077 23.1328L17.3671 22.6406L16.6639 22.3242C16.6639 22.3242 9.45691 24.9609 8.75378 25.9453C8.75378 25.9453 8.19128 26.2266 7.62878 27.668V34.875H37.371Z" fill="#353944"/>
<path d="M26.8241 24.1875C23.9413 24.1875 21.0585 24.1875 18.1757 24.1875C18.9139 21.9375 18.9139 19.582 18.1757 17.3672H26.8241C26.0858 19.582 26.0858 21.9727 26.8241 24.1875Z" fill="#F0B97C"/>
<path d="M21.1639 34.875H23.9061L24.5389 32.9414L25.5585 29.8477L27.7733 23.1328H17.5077L20.496 32.7305L21.1639 34.875Z" fill="#FDFEFF"/>
<path d="M24.8553 34.875L24.5741 33.2227L24.5389 32.9414L24.1522 30.5156L23.3788 25.7695H21.621L20.8475 30.5156L20.496 32.7305L20.4257 33.2227L20.1444 34.875H24.8553Z" fill="#F1592F"/>
<path d="M22.4999 23.1328L26.2968 21.0938L25.3124 25.3828C25.3124 25.3828 24.328 24.2227 22.4999 23.1328Z" fill="#E8E7E8"/>
<path d="M24.4686 24.5391L23.3788 25.7695H21.621L20.5311 24.5391C20.9882 24.1172 21.6561 23.625 22.4999 23.1328C23.3436 23.625 23.9764 24.1172 24.4686 24.5391Z" fill="#E34E30"/>
<path d="M25.2421 34.875L28.6522 28.0195L27.1757 27.3516L28.9686 26.1562L28.3358 22.3242L26.2968 21.0586L26.2616 21.1641L25.8397 23.1328H25.8046L25.5936 24.1875L25.3124 25.3828L24.1522 30.5156L23.1678 34.875H25.2421Z" fill="#656D7A"/>
<path d="M22.4999 23.1328L18.703 21.0938L19.6874 25.3828C19.6874 25.3828 20.6718 24.2227 22.4999 23.1328Z" fill="#E8E7E8"/>
<path d="M16.3475 28.0195L19.7577 34.875H21.8319L20.8475 30.5156L19.6874 25.3828L19.4061 24.1875L19.1952 23.1328L18.7382 21.1289L18.703 21.0586L16.6639 22.3242L16.0311 26.1562L17.8241 27.3516L16.3475 28.0195Z" fill="#656D7A"/>
<path d="M28.5187 14.5911C29.0925 14.6919 29.7292 13.7968 29.9408 12.5919C30.1524 11.3871 29.8588 10.3286 29.2851 10.2279C28.7113 10.1271 28.0747 11.0221 27.863 12.227C27.6514 13.4319 27.945 14.4903 28.5187 14.5911Z" fill="#F0B97C"/>
<path d="M14.9061 12.5859C15.1171 13.7812 15.7499 14.6602 16.3124 14.5898C16.8749 14.4844 17.1561 13.4297 16.9452 12.2344C16.453 9.35156 14.4139 9.73828 14.9061 12.5859Z" fill="#F0B97C"/>
<path d="M29.0389 11.0391C29.0389 16.7344 24.785 21.0938 22.3944 21.0938C20.0389 21.0938 15.7499 16.7344 15.7499 11.0391C15.7499 7.20703 18.7382 2.28516 22.3944 2.28516C26.0858 2.28516 29.0389 7.20703 29.0389 11.0391Z" fill="#F7CFA3"/>
<path d="M28.6522 9.73828C28.6522 10.4766 28.5116 11.1797 28.2655 11.8477L29.2147 11.707C29.7069 10.6875 29.9882 9.5625 29.9882 8.36719C29.9882 7.48828 29.8475 6.60938 29.5663 5.83594C29.1796 6.11719 28.6171 6.46875 27.9139 6.78516C28.371 7.66406 28.6522 8.68359 28.6522 9.73828Z" fill="#353944"/>
<path d="M30.164 5.23828C30.164 5.34375 29.953 5.55468 29.5312 5.87109C29.1445 6.15234 28.582 6.5039 27.8788 6.82031C23.871 8.71875 18.9843 7.94531 16.9804 6.67968C16.0663 8.29687 15.9257 10.2305 16.5234 11.8828L15.5741 11.7422C11.5663 3.55078 23.1327 -4.39453 30.164 5.23828Z" fill="#4D535F"/>
<path d="M37.16 27.1406H7.83972C7.06628 27.1406 6.43347 27.7734 6.43347 28.5469V45H38.5663V28.5469C38.5663 27.7734 37.9335 27.1406 37.16 27.1406Z" fill="#E8E7E8"/>
<path d="M22.4999 38.7422C23.9755 38.7422 25.1718 37.5459 25.1718 36.0703C25.1718 34.5947 23.9755 33.3984 22.4999 33.3984C21.0242 33.3984 19.828 34.5947 19.828 36.0703C19.828 37.5459 21.0242 38.7422 22.4999 38.7422Z" fill="#D2D2D4"/>
</g>
<defs>
<clipPath id="clip0_684_3432">
<rect width="45" height="45" fill="white"/>
</clipPath>
</defs>
</svg>
