<svg width="45" height="45" viewBox="0 0 45 45" fill="none" xmlns="http://www.w3.org/2000/svg">
<g clip-path="url(#clip0_684_3471)">
<path d="M29.4332 1.55655C28.159 0.610263 26.6251 0.0777065 25.0387 0.0307641C20.4213 -0.0804337 15.8016 0.109814 11.2091 0.600295C8.14082 0.956252 5.19824 3.89883 4.84229 6.96709C4.03809 14.4949 4.03809 28.473 4.84229 36.0009C5.19385 39.0691 8.14082 42.0117 11.2091 42.3677C18.7169 43.1721 26.2892 43.1721 33.797 42.3677C36.8652 42.0117 39.8069 39.0691 40.1638 36.0009C40.7113 30.8733 40.8862 22.754 40.6911 15.7184V15.6894C40.6773 14.173 40.1852 12.6997 39.2849 11.4794C36.5103 7.70228 33.1902 4.35818 29.4332 1.55655Z" fill="#4193D2"/>
<path d="M34.4798 10.2938C34.4806 8.65101 34.3082 7.01277 33.9656 5.40615C32.5373 4.02883 31.0234 2.74307 29.4331 1.55655C28.1589 0.610263 26.625 0.0777065 25.0386 0.0307641C20.4212 -0.0804337 15.8015 0.109814 11.209 0.600295C8.1407 0.956252 5.19813 3.89883 4.84217 6.96709C4.14432 13.4991 4.05115 24.8862 4.56531 32.7032C6.69928 33.3263 8.9112 33.6417 11.1343 33.6401C24.0278 33.6401 34.4798 23.1873 34.4798 10.2938Z" fill="#48A4DF"/>
<path d="M40.684 15.7184C40.0986 15.7333 39.5142 15.743 38.9323 15.743C36.4612 15.7422 33.9918 15.6105 31.5346 15.3483H31.5135C30.0483 15.1787 28.6087 14.4519 27.46 13.3031C26.3112 12.1544 25.5844 10.7139 25.4139 9.24961C25.4139 9.24258 25.4139 9.23555 25.4139 9.22852C25.0874 6.17413 24.963 3.10154 25.0412 0.0307617C26.6277 0.0777042 28.1615 0.610261 29.4357 1.55654C33.1989 4.3654 36.5236 7.71817 39.3006 11.5049C40.1942 12.7188 40.6787 14.1855 40.684 15.6929V15.7184Z" fill="#34344F"/>
<path d="M26.7797 29.9013H12.9633C12.6369 29.9013 12.3239 30.0309 12.0932 30.2617C11.8624 30.4924 11.7328 30.8054 11.7328 31.1317C11.7328 31.4581 11.8624 31.7711 12.0932 32.0018C12.3239 32.2326 12.6369 32.3622 12.9633 32.3622H26.7797C27.106 32.3622 27.419 32.2326 27.6497 32.0018C27.8805 31.7711 28.0101 31.4581 28.0101 31.1317C28.0101 30.8054 27.8805 30.4924 27.6497 30.2617C27.419 30.0309 27.106 29.9013 26.7797 29.9013Z" fill="white"/>
<path d="M12.9633 26.1844H32.0355C32.3619 26.1844 32.6748 26.0547 32.9056 25.824C33.1364 25.5932 33.266 25.2803 33.266 24.9539C33.266 24.6276 33.1364 24.3146 32.9056 24.0838C32.6748 23.8531 32.3619 23.7234 32.0355 23.7234H12.9633C12.6369 23.7234 12.3239 23.8531 12.0932 24.0838C11.8624 24.3146 11.7328 24.6276 11.7328 24.9539C11.7328 25.2803 11.8624 25.5932 12.0932 25.824C12.3239 26.0547 12.6369 26.1844 12.9633 26.1844Z" fill="white"/>
<path d="M12.9633 20.0074H25.8832C26.2095 20.0074 26.5225 19.8778 26.7533 19.647C26.984 19.4163 27.1136 19.1033 27.1136 18.777C27.1136 18.4506 26.984 18.1376 26.7533 17.9069C26.5225 17.6761 26.2095 17.5465 25.8832 17.5465H12.9633C12.6369 17.5465 12.3239 17.6761 12.0932 17.9069C11.8624 18.1376 11.7328 18.4506 11.7328 18.777C11.7328 19.1033 11.8624 19.4163 12.0932 19.647C12.3239 19.8778 12.6369 20.0074 12.9633 20.0074Z" fill="white"/>
<path d="M34.8146 24.627C32.7999 24.6268 30.8303 25.2241 29.155 26.3433C27.4798 27.4625 26.174 29.0533 25.4029 30.9147C24.6317 32.776 24.4299 34.8242 24.8228 36.8002C25.2158 38.7763 26.1859 40.5914 27.6105 42.0161C29.035 43.4408 30.8501 44.4111 32.8261 44.8042C34.8021 45.1973 36.8503 44.9956 38.7117 44.2247C40.5731 43.4537 42.1641 42.1481 43.2834 40.4729C44.4028 38.7977 45.0002 36.8282 45.0002 34.8135C45.0002 32.112 43.9272 29.5211 42.017 27.6108C40.1068 25.7005 37.5161 24.6272 34.8146 24.627Z" fill="#F9973E"/>
<path d="M39.7374 36.4834H34.8156C34.3727 36.4834 33.9479 36.3075 33.6347 35.9943C33.3216 35.6811 33.1456 35.2564 33.1456 34.8135V28.8879C33.1456 28.445 33.3216 28.0203 33.6347 27.7071C33.9479 27.3939 34.3727 27.218 34.8156 27.218C35.2584 27.218 35.6832 27.3939 35.9964 27.7071C36.3095 28.0203 36.4855 28.445 36.4855 28.8879V33.1436H39.7374C40.1803 33.1436 40.6051 33.3195 40.9182 33.6327C41.2314 33.9458 41.4073 34.3706 41.4073 34.8135C41.4073 35.2564 41.2314 35.6811 40.9182 35.9943C40.6051 36.3075 40.1803 36.4834 39.7374 36.4834Z" fill="white"/>
</g>
<defs>
<clipPath id="clip0_684_3471">
<rect width="45" height="45" fill="white" transform="translate(0.000244141)"/>
</clipPath>
</defs>
</svg>
