<svg width="45" height="45" viewBox="0 0 45 45" fill="none" xmlns="http://www.w3.org/2000/svg">
<path d="M44.0332 23.4668C44.0332 35.3593 34.3925 45 22.5 45C17.6583 45 13.1898 43.4021 9.59317 40.7048C9.48788 40.6259 9.81844 39.8617 9.71473 39.7808C8.09464 38.5189 6.65956 37.0305 5.4573 35.3632C5.3296 35.1861 4.76947 35.6913 4.64704 35.5103C2.32356 32.0727 0.966797 27.9282 0.966797 23.4668C0.966797 11.5743 10.6075 1.93359 22.5 1.93359C34.3925 1.93359 44.0332 11.5743 44.0332 23.4668Z" fill="#01C0FA"/>
<path d="M9.55019 5.27344H5.35016C4.96186 5.27344 4.64703 5.58826 4.64703 5.97656V35.5103C5.80499 37.2234 7.20298 38.7609 8.79283 40.0745C8.87985 40.1464 10.2533 39.9532 10.2533 39.5788V5.97656C10.2533 5.58826 9.93849 5.27344 9.55019 5.27344Z" fill="#FAC600"/>
<path d="M30.9375 5.27344H10.9762C10.2133 5.75771 9.48287 6.28857 8.78906 6.86215V40.0017C8.78906 40.0263 8.79038 40.0506 8.79284 40.0745C9.05449 40.2907 9.32142 40.5009 9.59326 40.7048H30.9375C31.3258 40.7048 31.6406 40.39 31.6406 40.0017V5.97656C31.6406 5.58826 31.3258 5.27344 30.9375 5.27344Z" fill="#FED402"/>
<path d="M19.1208 3.00094V36.0966C19.1208 36.7831 19.6774 37.3397 20.364 37.3397H39.8169C40.2504 37.3397 40.6018 36.9883 40.6018 36.5549V11.1402C40.6018 11.0269 40.5772 10.9162 40.5313 10.8151C40.4927 10.7304 39.4358 10.523 39.3687 10.4558L32.1289 3.04181C32.0618 2.97466 31.7129 1.86688 31.6282 1.8283C31.5271 1.78225 31.4163 1.75781 31.3031 1.75781H20.364C19.6774 1.75781 19.1208 2.31434 19.1208 3.00094Z" fill="#F2FBFF"/>
<path d="M19.7488 36.5548V2.54268C19.7488 2.1092 20.1002 1.75781 20.5336 1.75781H13.9157C13.4822 1.75781 13.1308 2.1092 13.1308 2.54268V36.5548C13.1308 36.9882 13.4822 37.3396 13.9157 37.3396H20.5336C20.1002 37.3396 19.7488 36.9882 19.7488 36.5548Z" fill="#E5EEF9"/>
<path d="M32.3313 10.8151H40.5311C40.4925 10.7304 40.4389 10.6523 40.3718 10.5852L31.858 1.98765C31.7908 1.9205 31.7129 1.86688 31.6281 1.8283V10.1119C31.6281 10.5003 31.943 10.8151 32.3313 10.8151Z" fill="#D8E8F0"/>
<path d="M30.4473 17.5781H24.8619C24.3765 17.5781 23.983 17.1846 23.983 16.6992C23.983 16.2138 24.3765 15.8203 24.8619 15.8203H30.4473C30.9327 15.8203 31.3262 16.2138 31.3262 16.6992C31.3262 17.1846 30.9327 17.5781 30.4473 17.5781Z" fill="#BEC6ED"/>
<path d="M28.7527 21.0938H24.8619C24.3765 21.0938 23.983 20.7003 23.983 20.2148C23.983 19.7294 24.3765 19.3359 24.8619 19.3359H28.7527C29.2381 19.3359 29.6316 19.7294 29.6316 20.2148C29.6316 20.7003 29.2381 21.0938 28.7527 21.0938Z" fill="#BEC6ED"/>
<path d="M34.9662 24.6094H24.8619C24.3765 24.6094 23.983 24.2159 23.983 23.7305C23.983 23.245 24.3765 22.8516 24.8619 22.8516H34.9662C35.4516 22.8516 35.8451 23.245 35.8451 23.7305C35.8451 24.2159 35.4516 24.6094 34.9662 24.6094Z" fill="#D5DAF3"/>
<path d="M34.9662 31.6406H24.8619C24.3765 31.6406 23.983 31.2471 23.983 30.7617C23.983 30.2763 24.3765 29.8828 24.8619 29.8828H34.9662C35.4516 29.8828 35.8451 30.2763 35.8451 30.7617C35.8451 31.2471 35.4516 31.6406 34.9662 31.6406Z" fill="#D5DAF3"/>
<path d="M36.6608 28.125H24.8619C24.3765 28.125 23.983 27.7315 23.983 27.2461C23.983 26.7607 24.3765 26.3672 24.8619 26.3672H36.6608C37.1463 26.3672 37.5397 26.7607 37.5397 27.2461C37.5397 27.7315 37.1463 28.125 36.6608 28.125Z" fill="#D5DAF3"/>
<path d="M13.047 14.4024H11.1958C10.8075 14.4024 10.4927 14.0876 10.4927 13.6992V0.703125C10.4927 0.314824 10.8075 0 11.1958 0H13.047C13.4353 0 13.7501 0.314824 13.7501 0.703125V13.6992C13.7501 14.0876 13.4353 14.4024 13.047 14.4024Z" fill="#26A6FE"/>
<path d="M22.4448 14.4024H13.013C12.6247 14.4024 12.3099 14.0876 12.3099 13.6992V0.703125C12.3099 0.314824 12.6247 0 13.013 0H22.4449C22.8332 0 23.148 0.314824 23.148 0.703125V13.6992C23.1479 14.0876 22.8332 14.4024 22.4448 14.4024Z" fill="#01C0FA"/>
<path d="M11.6959 16.4748H9.00385C8.61554 16.4748 8.30072 16.16 8.30072 15.7717V2.46094C8.30072 2.07264 8.61554 1.75781 9.00385 1.75781H11.6959C12.0842 1.75781 12.3991 2.07264 12.3991 2.46094V15.7717C12.3991 16.16 12.0843 16.4748 11.6959 16.4748Z" fill="#314DC9"/>
<path d="M20.0443 16.4748H11.624C11.2357 16.4748 10.9208 16.16 10.9208 15.7717V2.46094C10.9208 2.07264 11.2357 1.75781 11.624 1.75781H20.0443C20.4326 1.75781 20.7474 2.07264 20.7474 2.46094V15.7717C20.7474 16.16 20.4327 16.4748 20.0443 16.4748Z" fill="#4F66D0"/>
<path d="M14.5241 8.99218C15.7323 8.99218 16.7118 8.01273 16.7118 6.80449V6.07527C16.7118 4.86703 15.7323 3.88758 14.5241 3.88758C13.3159 3.88758 12.3364 4.86703 12.3364 6.07527V6.80449C12.3365 8.01273 13.316 8.99218 14.5241 8.99218Z" fill="#FFE5C2"/>
<path d="M11.1974 14.0178H17.8509C18.0523 14.0178 18.2155 13.8546 18.2155 13.6532V11.8301C18.2155 10.6218 17.2361 9.6424 16.0278 9.6424H13.0204C11.8122 9.6424 10.8327 10.6218 10.8327 11.8301V13.6531C10.8327 13.8546 10.996 14.0178 11.1974 14.0178Z" fill="#05E39C"/>
<path d="M44.0332 34.2456C44.0332 35.7224 43.6191 37.1024 42.9007 38.2759C42.7959 38.4471 42.6516 38.5915 42.4804 38.6963C41.3068 39.4147 39.9268 39.8288 38.45 39.8288C34.1947 39.8288 30.7193 36.3534 30.7194 32.0981C30.7194 30.622 31.1331 29.2424 31.851 28.0692C31.9563 27.897 32.1014 27.7519 32.2736 27.6465C33.4469 26.9287 34.8264 26.5149 36.3025 26.5149C40.5578 26.5148 44.0332 29.9903 44.0332 34.2456Z" fill="#FE7701"/>
<path d="M42.9732 38.1552C41.6303 40.4414 39.1457 41.9762 36.3026 41.9762C32.0331 41.9762 28.572 38.5151 28.572 34.2456C28.572 31.4025 30.1069 28.918 32.3931 27.5751C31.7193 28.7221 31.333 30.0582 31.333 31.4847C31.333 35.7543 34.7942 39.2153 39.0636 39.2153C40.4899 39.2152 41.8261 38.8289 42.9732 38.1552Z" fill="#FD5426"/>
<path d="M38.9393 33.3666H37.1815V31.6088C37.1815 31.1234 36.788 30.7299 36.3026 30.7299C35.8172 30.7299 35.4237 31.1234 35.4237 31.6088V33.3666H33.6659C33.1805 33.3666 32.787 33.7601 32.787 34.2455C32.787 34.7309 33.1805 35.1244 33.6659 35.1244H35.4237V36.8822C35.4237 37.3677 35.8172 37.7612 36.3026 37.7612C36.788 37.7612 37.1815 37.3677 37.1815 36.8822V35.1244H38.9393C39.4248 35.1244 39.8182 34.7309 39.8182 34.2455C39.8182 33.7601 39.4247 33.3666 38.9393 33.3666Z" fill="#F9F3F1"/>
</svg>
