<svg width="45" height="43" viewBox="0 0 45 43" fill="none" xmlns="http://www.w3.org/2000/svg">
<path fill-rule="evenodd" clip-rule="evenodd" d="M8.7977 0H40.9971C41.4986 0 41.9033 0.404692 41.9033 0.906158V4.78592H7.89154V0.897361C7.89154 0.404692 8.30503 0 8.7977 0Z" fill="#5ADB7A"/>
<path fill-rule="evenodd" clip-rule="evenodd" d="M7.90029 4.78592H42.8446C44.0235 4.78592 44.9912 5.75366 44.9912 6.93255V33.1672C44.9912 34.346 44.0235 35.3138 42.8446 35.3138H7.90029C6.7214 35.3138 5.75366 34.346 5.75366 33.1672V6.93255C5.75366 5.75366 6.7214 4.78592 7.90029 4.78592Z" fill="#E39127"/>
<mask id="mask0_684_3539" style="mask-type:luminance" maskUnits="userSpaceOnUse" x="5" y="4" width="40" height="32">
<path d="M7.90029 4.78592H42.8446C44.0235 4.78592 44.9912 5.75366 44.9912 6.93255V33.1672C44.9912 34.346 44.0235 35.3138 42.8446 35.3138H7.90029C6.7214 35.3138 5.75366 34.346 5.75366 33.1672V6.93255C5.75366 5.75366 6.7214 4.78592 7.90029 4.78592Z" fill="white"/>
</mask>
<g mask="url(#mask0_684_3539)">
<path fill-rule="evenodd" clip-rule="evenodd" d="M4.68938 4.78592H39.6337C40.8125 4.78592 41.7803 5.75366 41.7803 6.93255V33.1672C41.7803 34.346 40.8125 35.3138 39.6337 35.3138H4.68938C3.5105 35.3138 2.54276 34.346 2.54276 33.1672V6.93255C2.54276 5.75366 3.5105 4.78592 4.68938 4.78592Z" fill="#F99E27"/>
</g>
<path fill-rule="evenodd" clip-rule="evenodd" d="M44.9914 14.4897H36.0882C33.0266 14.4897 30.5281 16.9971 30.5281 20.0499C30.5281 23.1114 33.0354 25.61 36.0882 25.61H45.0002V14.4897H44.9914Z" fill="#FCCB5E"/>
<mask id="mask1_684_3539" style="mask-type:luminance" maskUnits="userSpaceOnUse" x="30" y="14" width="16" height="12">
<path d="M44.9914 14.4897H36.0882C33.0266 14.4897 30.5281 16.9971 30.5281 20.0499C30.5281 23.1114 33.0354 25.61 36.0882 25.61H45.0002V14.4897H44.9914Z" fill="white"/>
</mask>
<g mask="url(#mask1_684_3539)">
<path fill-rule="evenodd" clip-rule="evenodd" d="M43.0384 14.4897H34.1263C31.0648 14.4897 28.5662 16.9971 28.5662 20.0499C28.5662 23.1114 31.0736 25.61 34.1263 25.61H43.0384V14.4897Z" fill="#FFE45E"/>
</g>
<path fill-rule="evenodd" clip-rule="evenodd" d="M36.8798 17.6481C40.0469 17.7273 40.0469 22.3724 36.8798 22.4604C33.7038 22.3724 33.7038 17.7273 36.8798 17.6481Z" fill="#E39127"/>
<mask id="mask2_684_3539" style="mask-type:luminance" maskUnits="userSpaceOnUse" x="34" y="17" width="6" height="6">
<path d="M36.8798 17.6481C40.0469 17.7273 40.0469 22.3724 36.8798 22.4604C33.7038 22.3724 33.7038 17.7273 36.8798 17.6481Z" fill="white"/>
</mask>
<g mask="url(#mask2_684_3539)">
<path fill-rule="evenodd" clip-rule="evenodd" d="M35.6395 22.4516C38.8067 22.3636 38.8067 17.7273 35.6395 17.6393C32.4724 17.7273 32.4724 22.3724 35.6395 22.4516Z" fill="#F99E27"/>
</g>
<path fill-rule="evenodd" clip-rule="evenodd" d="M11.0411 42.6686C17.1114 42.6686 22.0821 37.698 22.0821 31.6276C22.0821 25.5572 17.1114 20.5865 11.0411 20.5865C4.97067 20.5865 0 25.5572 0 31.6276C0 37.7068 4.96188 42.6686 11.0411 42.6686Z" fill="#D95859"/>
<mask id="mask3_684_3539" style="mask-type:luminance" maskUnits="userSpaceOnUse" x="0" y="20" width="23" height="23">
<path d="M11.0411 42.6686C17.1114 42.6686 22.0821 37.698 22.0821 31.6276C22.0821 25.5572 17.1114 20.5865 11.0411 20.5865C4.97067 20.5865 0 25.5572 0 31.6276C0 37.7068 4.96188 42.6686 11.0411 42.6686Z" fill="white"/>
</mask>
<g mask="url(#mask3_684_3539)">
<path fill-rule="evenodd" clip-rule="evenodd" d="M9.19355 42.6686C15.2639 42.6686 20.2346 37.698 20.2346 31.6276C20.2346 25.5572 15.2639 20.5865 9.19355 20.5865C3.12317 20.5865 -1.8475 25.5572 -1.8475 31.6276C-1.8475 37.7068 3.11437 42.6686 9.19355 42.6686Z" fill="#EE5E5F"/>
</g>
<path fill-rule="evenodd" clip-rule="evenodd" d="M11.0411 24.2727C15.1056 24.2727 18.4047 27.5719 18.4047 31.6364C18.0704 41.3842 4.01173 41.3842 3.67742 31.6364C3.66862 27.5631 6.96774 24.2727 11.0411 24.2727Z" fill="#D8E2F1"/>
<mask id="mask4_684_3539" style="mask-type:luminance" maskUnits="userSpaceOnUse" x="3" y="24" width="16" height="15">
<path d="M11.0411 24.2727C15.1056 24.2727 18.4047 27.5719 18.4047 31.6364C18.0704 41.3842 4.01173 41.3842 3.67742 31.6364C3.66862 27.5631 6.96774 24.2727 11.0411 24.2727Z" fill="white"/>
</mask>
<g mask="url(#mask4_684_3539)">
<path fill-rule="evenodd" clip-rule="evenodd" d="M8.82421 39C12.8799 39 16.1878 35.6921 16.1878 31.6364C15.8359 21.8886 1.80368 21.8886 1.46057 31.6364C1.46057 35.6921 4.76849 39 8.82421 39Z" fill="#E9EBEF"/>
</g>
<path fill-rule="evenodd" clip-rule="evenodd" d="M10.5044 27.4399C10.5044 26.7361 11.5689 26.7361 11.5777 27.4399V31.0997H13.2493C13.9531 31.0997 13.9531 32.1642 13.2493 32.173H11.0411C10.7419 32.173 10.5044 31.9355 10.5044 31.6364V27.4399Z" fill="#EE5E5F"/>
</svg>
