<svg width="45" height="45" viewBox="0 0 45 45" fill="none" xmlns="http://www.w3.org/2000/svg">
<path d="M27.9303 0H3.10337C1.38942 0 0 1.38942 0 3.10337V41.8954C0 43.6094 1.38942 44.9988 3.10337 44.9988H27.9303C29.6442 44.9988 31.0337 43.6094 31.0337 41.8954V3.10337C31.0337 1.38942 29.6442 0 27.9303 0Z" fill="#BBDEFB"/>
<path d="M31.0336 3.10337V41.8954C31.0337 42.303 30.9535 42.7066 30.7976 43.0832C30.6416 43.4597 30.4131 43.8019 30.1249 44.0901C29.8367 44.3783 29.4945 44.6069 29.1179 44.7628C28.7414 44.9187 28.3378 44.9989 27.9302 44.9988H3.10328C2.41538 44.9994 1.74687 44.771 1.2032 44.3495C0.659531 43.9281 0.271656 43.3376 0.100769 42.6713H24.051C24.4586 42.6714 24.8622 42.5912 25.2387 42.4353C25.6153 42.2794 25.9575 42.0508 26.2457 41.7626C26.5338 41.4744 26.7624 41.1322 26.9184 40.7556C27.0743 40.3791 27.1545 39.9755 27.1544 39.5679V0.775841C27.1567 0.513811 27.1228 0.252715 27.0535 1.17421e-07H27.9302C28.3378 -0.000112011 28.7414 0.0800824 29.1179 0.236001C29.4945 0.39192 29.8367 0.620508 30.1249 0.908705C30.4131 1.1969 30.6416 1.53906 30.7976 1.91563C30.9535 2.29219 31.0337 2.69579 31.0336 3.10337Z" fill="#90CAF9"/>
<path d="M31.0337 38.7921V41.8954C31.0338 42.303 30.9536 42.7066 30.7977 43.0832C30.6417 43.4597 30.4131 43.8019 30.125 44.0901C29.8368 44.3783 29.4946 44.6069 29.118 44.7628C28.7415 44.9187 28.3379 44.9989 27.9303 44.9988H3.10337C2.69579 44.9989 2.29219 44.9187 1.91563 44.7628C1.53906 44.6069 1.1969 44.3783 0.908705 44.0901C0.620508 43.8019 0.39192 43.4597 0.236001 43.0832C0.0800824 42.7066 -0.000112011 42.303 1.17421e-07 41.8954V38.7921H31.0337Z" fill="#64B5F6"/>
<path d="M18.6202 42.6713H12.4135C12.2077 42.6713 12.0104 42.5895 11.8649 42.444C11.7194 42.2985 11.6376 42.1012 11.6376 41.8954C11.6376 41.6897 11.7194 41.4923 11.8649 41.3468C12.0104 41.2013 12.2077 41.1196 12.4135 41.1196H18.6202C18.826 41.1196 19.0233 41.2013 19.1688 41.3468C19.3143 41.4923 19.396 41.6897 19.396 41.8954C19.396 42.1012 19.3143 42.2985 19.1688 42.444C19.0233 42.5895 18.826 42.6713 18.6202 42.6713Z" fill="#F5F5F5"/>
<path d="M10.0859 0H20.9477V1.55168C20.9477 1.96321 20.7842 2.35789 20.4932 2.64889C20.2022 2.93989 19.8076 3.10337 19.396 3.10337H11.6376C11.2261 3.10337 10.8314 2.93989 10.5404 2.64889C10.2494 2.35789 10.0859 1.96321 10.0859 1.55168V0Z" fill="#64B5F6"/>
<path d="M20.9477 0V1.55168C20.9465 1.96284 20.7826 2.35682 20.4919 2.64755C20.2012 2.93829 19.8072 3.10216 19.396 3.10337H11.6376C11.2265 3.10216 10.8325 2.93829 10.5417 2.64755C10.251 2.35682 10.0871 1.96284 10.0859 1.55168H15.5168C15.928 1.55048 16.322 1.38661 16.6127 1.09587C16.9034 0.805136 17.0673 0.41116 17.0685 0H20.9477Z" fill="#42A5F5"/>
<path d="M27.1543 38.7921V39.5679C27.1543 40.391 26.8274 41.1803 26.2454 41.7623C25.6634 42.3443 24.874 42.6713 24.051 42.6713H0.109497C0.279745 43.3363 0.666241 43.9258 1.20819 44.3472C1.75013 44.7685 2.41677 44.9977 3.10324 44.9988H27.9302C28.3377 44.9989 28.7413 44.9187 29.1179 44.7628C29.4945 44.6069 29.8366 44.3783 30.1248 44.0901C30.413 43.8019 30.6416 43.4597 30.7975 43.0832C30.9534 42.7066 31.0336 42.303 31.0335 41.8954V38.7921H27.1543Z" fill="#42A5F5"/>
<path d="M39.5679 7.75842H6.98258C5.26864 7.75842 3.87921 9.14785 3.87921 10.8618V29.482C3.87921 31.1959 5.26864 32.5853 6.98258 32.5853H39.5679C41.2819 32.5853 42.6713 31.1959 42.6713 29.482V10.8618C42.6713 9.14785 41.2819 7.75842 39.5679 7.75842Z" fill="#81C784"/>
<path d="M42.6712 10.8618V29.482C42.6713 29.8896 42.5911 30.2931 42.4352 30.6697C42.2793 31.0463 42.0507 31.3884 41.7625 31.6766C41.4743 31.9648 41.1321 32.1934 40.7556 32.3493C40.379 32.5053 39.9754 32.5855 39.5678 32.5853H6.98249C6.29459 32.586 5.62608 32.3575 5.08241 31.9361C4.53874 31.5146 4.15087 30.9242 3.97998 30.2578H35.6886C36.0962 30.2579 36.4998 30.1777 36.8764 30.0218C37.2529 29.8659 37.5951 29.6373 37.8833 29.3491C38.1715 29.0609 38.4001 28.7188 38.556 28.3422C38.7119 27.9656 38.7921 27.562 38.792 27.1545V8.53426C38.7943 8.27223 38.7604 8.01114 38.6911 7.75842H39.5678C39.9754 7.75831 40.379 7.83851 40.7556 7.99442C41.1321 8.15034 41.4743 8.37893 41.7625 8.66713C42.0507 8.95532 42.2793 9.29748 42.4352 9.67405C42.5911 10.0506 42.6713 10.4542 42.6712 10.8618Z" fill="#66BB6A"/>
<path d="M38.7921 14.741V25.6028C38.3845 25.6027 37.9809 25.6829 37.6043 25.8388C37.2278 25.9947 36.8856 26.2233 36.5974 26.5115C36.3092 26.7997 36.0806 27.1418 35.9247 27.5184C35.7688 27.895 35.6886 28.2986 35.6887 28.7061H10.8618C10.8619 28.2986 10.7817 27.895 10.6258 27.5184C10.4699 27.1418 10.2413 26.7997 9.95308 26.5115C9.66489 26.2233 9.32273 25.9947 8.94616 25.8388C8.56959 25.6829 8.16599 25.6027 7.75842 25.6028V14.741C8.16599 14.7411 8.56959 14.6609 8.94616 14.505C9.32273 14.3491 9.66489 14.1205 9.95308 13.8323C10.2413 13.5441 10.4699 13.2019 10.6258 12.8254C10.7817 12.4488 10.8619 12.0452 10.8618 11.6376H35.6887C35.6886 12.0452 35.7688 12.4488 35.9247 12.8254C36.0806 13.2019 36.3092 13.5441 36.5974 13.8323C36.8856 14.1205 37.2278 14.3491 37.6043 14.505C37.9809 14.6609 38.3845 14.7411 38.7921 14.741Z" fill="#C8E6C9"/>
<path d="M23.2752 24.8269C25.8461 24.8269 27.9303 22.7428 27.9303 20.1719C27.9303 17.601 25.8461 15.5168 23.2752 15.5168C20.7043 15.5168 18.6202 17.601 18.6202 20.1719C18.6202 22.7428 20.7043 24.8269 23.2752 24.8269Z" fill="#81C784"/>
<path d="M23.2752 15.5168C22.6054 15.5173 21.9436 15.6631 21.3356 15.9441C22.1457 16.3146 22.8323 16.91 23.3137 17.6595C23.7951 18.409 24.051 19.2811 24.051 20.1719C24.051 21.0626 23.7951 21.9347 23.3137 22.6842C22.8323 23.4337 22.1457 24.0291 21.3356 24.3996C21.9678 24.6897 22.6569 24.8345 23.3523 24.8232C24.0478 24.8119 24.7318 24.6449 25.3542 24.3344C25.9766 24.0239 26.5215 23.5778 26.9488 23.029C27.376 22.4802 27.6748 21.8426 27.8232 21.163C27.9716 20.4835 27.9658 19.7794 27.8062 19.1024C27.6465 18.4254 27.3372 17.7928 26.9009 17.2512C26.4646 16.7095 25.9124 16.2725 25.285 15.9724C24.6575 15.6722 23.9708 15.5166 23.2752 15.5168Z" fill="#66BB6A"/>
<path d="M35.6887 42.6713C40.8305 42.6713 44.9988 38.503 44.9988 33.3612C44.9988 28.2194 40.8305 24.0511 35.6887 24.0511C30.5469 24.0511 26.3786 28.2194 26.3786 33.3612C26.3786 38.503 30.5469 42.6713 35.6887 42.6713Z" fill="#FFB74D"/>
<path d="M35.6887 24.0511C35.0368 24.0517 34.3867 24.1205 33.7491 24.2565C35.8344 24.7007 37.704 25.8471 39.0454 27.5043C40.3868 29.1615 41.1187 31.229 41.1187 33.361C41.1187 35.4931 40.3868 37.5605 39.0454 39.2177C37.704 40.8749 35.8344 42.0214 33.7491 42.4655C35.0253 42.7376 36.3446 42.7384 37.6211 42.4678C38.8977 42.1971 40.1032 41.6612 41.1592 40.8946C42.2153 40.128 43.0984 39.148 43.7512 38.018C44.4041 36.8881 44.8121 35.6336 44.9488 34.3358C45.0855 33.0381 44.9478 31.726 44.5447 30.4849C44.1416 29.2438 43.4821 28.1012 42.6089 27.1315C41.7357 26.1617 40.6684 25.3863 39.4762 24.8556C38.2841 24.3249 36.9936 24.0508 35.6887 24.0511Z" fill="#FFA726"/>
<path d="M34.1369 37.2404C34.035 37.2405 33.9341 37.2205 33.84 37.1815C33.7459 37.1425 33.6604 37.0852 33.5884 37.0131L30.4851 33.9097C30.3437 33.7634 30.2655 33.5674 30.2673 33.364C30.2691 33.1606 30.3507 32.966 30.4945 32.8221C30.6384 32.6783 30.8329 32.5967 31.0364 32.5949C31.2398 32.5931 31.4358 32.6713 31.5821 32.8127L34.1369 35.3674L39.7952 29.7093C39.9415 29.568 40.1375 29.4898 40.3409 29.4915C40.5443 29.4933 40.7389 29.5749 40.8827 29.7188C41.0266 29.8626 41.1082 30.0572 41.11 30.2606C41.1117 30.464 41.0335 30.66 40.8922 30.8063L34.6855 37.0131C34.6135 37.0852 34.528 37.1425 34.4339 37.1815C34.3398 37.2205 34.2388 37.2405 34.1369 37.2404Z" fill="#EEEEEE"/>
</svg>
