<svg width="45" height="45" viewBox="0 0 45 45" fill="none" xmlns="http://www.w3.org/2000/svg">
<g clip-path="url(#clip0_684_3362)">
<path d="M45 22.5C45 34.9245 34.9245 45 22.5 45C17.8227 45 13.4775 43.5717 9.8775 41.1273V40.4325C9.8775 39.9609 9.495 39.5784 9.02338 39.5784H7.8525C3.04559 35.4519 0 29.331 0 22.5C0 18.45 1.07104 14.6475 2.9475 11.3625C2.95198 11.3535 2.95646 11.3445 2.96104 11.34C6.83552 4.56302 14.1345 0 22.5 0C30.8655 0 38.1645 4.56302 42.039 11.34C42.0434 11.3445 42.0479 11.3535 42.0525 11.3625C43.929 14.6475 45 18.45 45 22.5Z" fill="#15FF1D"/>
<path d="M45 22.5C45 34.9245 34.9245 45 22.5 45C17.8227 45 13.4775 43.5717 9.8775 41.1273V40.4325C9.8775 39.9609 9.495 39.5784 9.02338 39.5784H7.8525C3.04559 35.4519 0 29.331 0 22.5C0 18.45 1.07104 14.6475 2.9475 11.3625C2.95198 11.3535 2.95646 11.3445 2.96104 11.34C5.19302 15.2415 8.55905 18.4095 12.6135 20.394C13.0725 20.619 13.545 20.8304 14.0221 21.024C16.5735 22.0634 19.3591 22.6484 22.2751 22.6754H22.7251C25.6411 22.6484 28.4266 22.0634 30.9781 21.024C31.4551 20.8304 31.9276 20.619 32.3866 20.394C36.4366 18.4095 39.8072 15.2415 42.0391 11.34C42.0436 11.3445 42.0481 11.3535 42.0527 11.3625C43.929 14.6475 45 18.45 45 22.5Z" fill="#009A33"/>
<path d="M24.8805 35.8461H10.9064C11.0306 31.7126 13.3165 28.1238 16.6756 26.1672C16.8466 26.0688 17.0189 25.9762 17.1934 25.886C18.7845 25.0636 20.5864 24.5996 22.501 24.5996C25.2098 27.7853 26.0065 32.0336 24.8805 35.8461Z" fill="white"/>
<path d="M34.0935 35.8458C34.0538 34.5313 33.7971 33.2718 33.3568 32.1015C32.8811 30.8498 32.1987 29.6956 31.3448 28.6934C30.4908 27.6913 29.473 26.8334 28.3266 26.1666H28.3227C28.1512 26.0652 27.9796 25.9717 27.8002 25.8819C26.2132 25.0592 24.4116 24.5991 22.5009 24.5991V35.8458H34.0935Z" fill="#DFF0F8"/>
<path d="M22.8384 34.9362L22.5009 35.8461H20.897L21.5891 29.6136H22.5008L22.9517 31.0905C23.3352 32.3505 23.2956 33.7014 22.8384 34.9362Z" fill="#474F6F"/>
<path d="M24.1049 35.8458H22.5009V29.614H23.4125L24.1049 35.8458Z" fill="#323B5A"/>
<path d="M22.9599 29.52L22.5009 30.0033H21.069L20.4156 28.0215L22.5009 27.2826L23.032 27.9567C23.4 28.4238 23.3685 29.0898 22.9599 29.52Z" fill="#323B5A"/>
<path d="M24.5864 28.0217L23.9326 30.003H22.5009V27.2824L24.5864 28.0217Z" fill="#243047"/>
<path d="M23.454 26.1909L22.5009 28.0215C21.0095 28.0215 19.8 26.8128 19.8 25.3215V19.664H22.5009L23.454 21.4956C24.2208 22.9671 24.2208 24.7194 23.454 26.1909Z" fill="#F4A57B"/>
<path d="M25.2015 19.6645V25.3211C25.2015 26.8126 23.9924 28.0217 22.5009 28.0217V19.6645H25.2015Z" fill="#F2926A"/>
<path d="M22.5009 28.0217L19.5373 23.7189L18.3306 25.3743L19.6787 29.8241L22.5009 28.0217Z" fill="#DFF0F8"/>
<path d="M22.5009 28.0217L25.4645 23.7189L26.6712 25.3743L25.3231 29.8241L22.5009 28.0217Z" fill="#9DD6ED"/>
<path d="M14.6112 15.662C13.5391 15.662 12.67 16.5311 12.67 17.6032C12.67 19.0955 13.8799 20.3052 15.3722 20.3052H16.5966V15.7042C16.5965 15.7042 14.7329 15.662 14.6112 15.662Z" fill="#F4A57B"/>
<path d="M30.3906 15.662C31.4627 15.662 32.3318 16.5311 32.3318 17.6032C32.3318 19.0955 31.1221 20.3052 29.6297 20.3052H28.4053V15.7042C28.4053 15.7042 30.2688 15.662 30.3906 15.662Z" fill="#F2926A"/>
<path d="M22.5009 25.7589H22.4567C19.9395 25.7589 17.6292 24.3531 16.4834 22.113C15.6068 20.4048 15.1136 18.4707 15.1136 16.4196C15.1136 15.9057 15.1452 15.4027 15.2045 14.9049C15.2225 14.7421 15.2459 14.5782 15.272 14.418C15.9309 10.332 19.2212 8.29627 22.5009 8.31692L22.6197 8.52487C25.6914 13.8708 25.6455 20.4561 22.5009 25.7589Z" fill="#F7BDA3"/>
<path d="M29.797 16.4195C29.797 18.4703 29.3044 20.4045 28.4306 22.1132C27.2897 24.3404 24.9977 25.7431 22.5009 25.7586V8.317C22.9339 8.31964 23.3643 8.35849 23.7921 8.43363C24.8136 8.60994 25.8015 8.99103 26.6648 9.57964C28.1505 10.5856 29.2835 12.201 29.6388 14.4178C29.7192 14.926 29.7736 15.4446 29.7892 15.9735C29.797 16.1212 29.797 16.269 29.797 16.4195Z" fill="#F4A57B"/>
<path d="M23.5602 13.6872L22.5091 15.3045C22.5063 15.3054 22.5046 15.3081 22.501 15.309C21.3958 15.9218 20.1079 16.3242 18.6427 16.5051C17.3277 16.6679 15.8841 16.5078 14.6791 15.9822C14.2966 15.8157 14.0697 15.4161 14.1102 15.0039C14.1102 15.0012 14.113 14.9985 14.113 14.9967C14.7286 9.27897 18.6166 6.39809 22.501 6.4503H22.5046L22.9771 6.95883C24.6925 8.80199 24.9336 11.5758 23.5602 13.6872Z" fill="#323B5A"/>
<path d="M30.5779 15.4194C30.5779 15.5974 30.5744 15.7756 30.5674 15.9524C30.3904 16.1399 30.1362 16.2583 29.8539 16.257C27.3466 16.2441 25.6512 15.2225 24.6494 13.6197C24.0378 14.291 23.3243 14.8558 22.5088 15.3045C22.5065 15.3056 22.5042 15.308 22.5007 15.3091V6.45056H22.5042C22.5088 6.45056 22.5124 6.45056 22.5171 6.44942H22.5218C22.9939 6.45408 23.4638 6.49626 23.93 6.57827C25.0618 6.77391 26.155 7.1957 27.1111 7.84714C28.756 8.96133 30.0097 10.7493 30.4034 13.2038C30.4924 13.7662 30.5522 14.3403 30.5697 14.9261C30.5779 15.089 30.5779 15.2531 30.5779 15.4194Z" fill="#243047"/>
<path d="M20.6675 19.0808C20.763 18.4917 20.3628 17.9367 19.7736 17.8412C19.1844 17.7457 18.6294 18.1458 18.5339 18.735C18.4384 19.3241 18.8386 19.8791 19.4278 19.9746C20.017 20.0702 20.572 19.67 20.6675 19.0808Z" fill="#243047"/>
<path d="M26.4492 19.1692C26.5864 18.5885 26.2269 18.0063 25.6461 17.8691C25.0653 17.7318 24.4832 18.0913 24.3459 18.6721C24.2086 19.2529 24.5682 19.835 25.149 19.9723C25.7297 20.1096 26.3119 19.75 26.4492 19.1692Z" fill="#243047"/>
<path d="M11.8485 29.3184L11.2626 34.4537C11.1151 35.7515 10.7154 37.0079 10.0863 38.1536L8.85777 40.3928C8.51491 40.1309 8.17917 39.8591 7.85248 39.5783L8.65527 36.7892L10.8819 29.0555L11.8475 29.3174C11.8485 29.3184 11.8485 29.3184 11.8485 29.3184Z" fill="#DFF0F8"/>
<path d="M12.8178 29.5812L10.8315 37.3787L9.8775 41.1273C9.53006 40.8915 9.19081 40.6467 8.85779 40.3929L11.8485 29.3184L12.8178 29.5812Z" fill="#9DD6ED"/>
<path d="M12.146 33.2321L10.2012 35.4162C6.83297 34.5063 4.84102 31.0386 5.75077 27.671C6.66071 24.3028 10.1279 22.3101 13.4961 23.22L14.0766 26.0863C14.5932 28.6391 13.8778 31.2868 12.146 33.2321Z" fill="#323B5A"/>
<path d="M17.9464 30.9658C17.0367 34.3333 13.5695 36.3262 10.2012 35.4162L13.4962 23.22C16.8644 24.1299 18.8563 27.5977 17.9464 30.9658Z" fill="#243047"/>
<path d="M11.0999 33.5972L10.5747 34.0336C7.97011 33.33 6.42921 30.6483 7.13269 28.0443C7.83634 25.4398 10.5181 23.8989 13.1226 24.6025L13.4912 25.9104C14.2825 28.72 13.3454 31.7321 11.0999 33.5972Z" fill="#DFF0F8"/>
<path d="M16.5645 30.5924C15.861 33.1964 13.1793 34.7373 10.5748 34.0336L13.1227 24.6025C15.7272 25.3062 17.2682 27.9879 16.5645 30.5924Z" fill="#9DD6ED"/>
<path d="M9.05491 40.1913L8.85777 40.3929C8.51491 40.131 8.17917 39.8593 7.85248 39.5785L8.65527 36.7893L9.75056 37.0863L9.84593 37.6137C10.0161 38.5497 9.72182 39.5109 9.05491 40.1913Z" fill="#323B5A"/>
<path d="M10.8315 37.3788L9.8775 41.1274C9.53006 40.8916 9.19081 40.6468 8.85779 40.393L9.75058 37.0863L10.8315 37.3788Z" fill="#243047"/>
<path d="M22.8133 23.0364L22.501 23.2569H22.5C21.6189 23.2569 20.7918 22.7602 20.2311 21.8935C20.0916 21.6784 20.1528 21.3904 20.3679 21.2509C20.5839 21.1114 20.871 21.1735 21.0105 21.3886C21.3974 21.9862 21.9402 22.3283 22.4999 22.3283H22.5008L22.8131 22.5488C22.9815 22.6674 22.9815 22.9176 22.8133 23.0364Z" fill="#F4A57B"/>
<path d="M24.7689 21.8934C24.2082 22.7601 23.382 23.2568 22.5009 23.2568V22.3281C23.0606 22.3281 23.6025 21.9861 23.9895 21.3884C24.1289 21.1734 24.4161 21.1112 24.632 21.2507C24.8472 21.3903 24.9084 21.6783 24.7689 21.8934Z" fill="#F2926A"/>
<path d="M22.494 21.1763C22.2138 21.1753 21.9875 20.9474 21.9884 20.6672L21.9958 18.4892C21.9968 18.209 22.2247 17.9827 22.5049 17.9836C22.785 17.9845 23.0115 18.2124 23.0105 18.4926L23.0031 20.6706C23.0022 20.9508 22.7743 21.1772 22.494 21.1763Z" fill="#E47971"/>
</g>
<defs>
<clipPath id="clip0_684_3362">
<rect width="45" height="45" fill="white"/>
</clipPath>
</defs>
</svg>
