<svg width="45" height="40" viewBox="0 0 45 40" fill="none" xmlns="http://www.w3.org/2000/svg">
<path d="M28.0371 0V6.94336H25.4004V2.63672H13.9746V6.94336H11.3379V0H28.0371Z" fill="#204E7E"/>
<path d="M28.0371 0V6.94336H25.4004V2.63672H19.6875V0H28.0371Z" fill="#113366"/>
<path d="M34.9806 11.3379L33.7501 33.8379H5.62512L4.39465 11.3379H34.9806Z" fill="#2F6996"/>
<path d="M34.9806 11.3379L33.7501 33.8379H19.6876V11.3379H34.9806Z" fill="#204E7E"/>
<path d="M0.00012207 11.3379H5.62512V33.8379H0.00012207V11.3379Z" fill="#204E7E"/>
<path d="M33.7502 11.3379H39.3752V33.8379H33.7502V11.3379Z" fill="#113366"/>
<path d="M19.6875 5.71289L22.5 11.3379V16.9629H16.875L0 11.3379V5.71289H19.6875Z" fill="#0FBCDE"/>
<path d="M39.375 5.71289V11.3379L22.5 16.9629H19.6875V5.71289H39.375Z" fill="#0C99B5"/>
<path d="M43.6816 31.6898C43.6816 35.3461 40.7179 38.3098 37.0625 38.3098C33.4063 38.3098 30.4426 35.3461 30.4426 31.6898C30.4426 28.0345 33.4063 25.0708 37.0625 25.0708C40.7179 25.0708 43.6816 28.0345 43.6816 31.6898Z" fill="#F7FAFA"/>
<path d="M43.6817 31.6898C43.6817 35.3461 40.718 38.3098 37.0626 38.3098V25.0708C40.718 25.0708 43.6817 28.0345 43.6817 31.6898Z" fill="#D6F0FF"/>
<path d="M21.2996 17.3746L19.6875 14.1504H16.875V19.7754H19.6875L21.2996 17.3746Z" fill="#FEEF85"/>
<path d="M19.6875 14.1504H22.5V19.7754H19.6875V14.1504Z" fill="#FDBE4D"/>
<path d="M31.761 31.6898C31.761 30.7055 32.0317 29.7844 32.501 28.9934L37.0625 33.5549L37.6273 32.2551L37.0625 29.8265L41.6232 34.3871L34.3652 27.1292C35.1562 26.6599 36.0782 26.3892 37.0625 26.3892L37.7179 25.0708L37.0625 23.7524C32.6856 23.7524 29.1243 27.3129 29.1243 31.6898C29.1243 36.0668 32.6856 39.6281 37.0625 39.6281L37.7832 38.3098L37.0625 36.9914C34.1393 36.9914 31.761 34.6131 31.761 31.6898Z" fill="#FF5754"/>
<path d="M37.0626 23.7524V26.3892C39.985 26.3892 42.3633 28.7675 42.3633 31.6898C42.3633 32.6742 42.0926 33.5962 41.6233 34.3872L37.0626 29.8266V33.5549L39.7591 36.2514C38.9681 36.7207 38.047 36.9914 37.0626 36.9914V39.6281C41.4396 39.6281 45 36.0668 45 31.6898C45 27.3129 41.4396 23.7524 37.0626 23.7524Z" fill="#DB3E51"/>
</svg>
