<svg width="40" height="40" viewBox="0 0 40 40" fill="none" xmlns="http://www.w3.org/2000/svg">
<rect width="40" height="40" rx="20" fill="#E4FFE8"/>
<path d="M24.2705 10.8235C23.7411 10.2588 23.0352 9.94116 22.2588 9.94116C21.5176 9.94116 20.7764 10.2588 20.247 10.8235L19.9293 11.1765L19.6117 10.8235C18.5176 9.65881 16.7176 9.65881 15.5882 10.8235C14.494 11.9882 14.494 13.8235 15.5882 14.9882L19.6823 19.2588C19.8235 19.4 20.0705 19.4 20.1764 19.2588L24.2352 14.9882C25.3646 13.8235 25.3646 11.9882 24.2705 10.8235ZM19.9293 18.5176C19.8235 18.4117 16.1529 14.5647 16.047 14.4588C15.2705 13.5765 15.3058 12.1647 16.1176 11.3176C16.9293 10.4353 18.2705 10.4353 19.1176 11.3176L19.6823 11.9176C19.8235 12.0588 20.0705 12.0588 20.2117 11.9176L20.7764 11.3176C21.5882 10.4353 22.9293 10.4353 23.7764 11.3176C24.5882 12.1647 24.6235 13.5765 23.847 14.4588C23.6705 14.6 20.0705 18.3765 19.9293 18.5176Z" fill="black"/>
<path d="M30.8353 11.1059C30.6588 10.2588 30.1294 9.97648 29.7412 9.90589C29.2823 9.80001 28.9294 9.87059 28.6823 10.0471C28.4 10.2588 28.2588 10.6118 28.2941 10.8941L28.3294 14C28.3294 14.8471 28.047 15.9059 27.6235 16.6824C27.4117 17.0353 27.0588 17.3177 26.847 17.6353C26.847 17.0353 26.6353 16.6471 26.1059 16.4353C24.4117 15.8706 23.9176 18.4471 22.3647 20.3529C21.5529 21.3412 20.6353 23.1412 20.7059 26.1059V29.8118C20.7059 30.0235 20.847 30.1647 21.0588 30.1647H26.6C26.8117 30.1647 26.9529 30.0235 26.9529 29.8118V26.1765C26.9529 26.0353 27.1647 25.6824 28.1529 24.7294C29.9529 23 30.8706 21.2 31.0823 18.6941C31.2588 16.4353 31.5764 14.2471 30.8353 11.1059ZM30.3412 18.6235C30.0588 22.1529 28.1529 23.4941 27.8353 24.0235C27.5529 24.3765 26.2117 25.4353 26.2117 26.1765V29.4588H21.4117C21.4117 29.2824 21.4117 26.2471 21.4117 26.0706C21.3412 23.3177 22.1882 21.6588 22.8941 20.7765C23.4588 20.1059 23.8117 19.4 24.6941 17.9177C25.0823 17.2471 25.4 16.9294 25.8235 17.0706C26.0353 17.1765 26.1412 17.2824 26.1059 17.7059C26.0706 18.0235 25.9294 18.6235 25.4 19.7529C25.2235 20.1412 25.7882 20.4588 26 20.1059C27.5882 17.7059 27.3764 18.0235 27.6235 17.7059C27.8 17.4941 28.047 17.2471 28.1882 17C28.6823 16.1177 29 14.9529 29 13.9647L28.9647 10.8941C29 10.6118 29.1059 10.5059 29.6 10.6118C29.8117 10.6471 30.0588 10.7529 30.1647 11.2824C30.8353 14.2824 30.5529 16.3294 30.3412 18.6235Z" fill="black"/>
<path d="M13.8941 16.4353C13.4 16.6471 13.1529 17.0353 13.1882 17.6353C12.9765 17.3177 12.6235 17 12.4117 16.6824C11.9882 15.9059 11.7059 14.8824 11.7059 14L11.7412 10.8941V10.8588C11.6706 10.1177 11.1765 9.69413 10.2588 9.90589C9.87057 9.97648 9.34116 10.2588 9.16469 11.1059C8.52939 13.9294 8.70586 15.9765 8.88233 17.9882C9.0588 19.8941 9.19998 22.1177 11.8823 24.7294C12.8706 25.6824 13.0823 26.0353 13.0823 26.1765V29.8118C13.0823 30.0235 13.2235 30.1647 13.4353 30.1647H18.9412C19.1529 30.1647 19.2941 30.0235 19.2941 29.8118C19.2941 29.6706 19.2941 26.2471 19.2941 26.1059C19.3647 23.1412 18.447 21.3412 17.6353 20.353C16.1176 18.4118 15.6235 15.8353 13.8941 16.4353ZM18.6235 26.0706V29.4588H13.7529V26.1765C13.7529 25.6824 13.2235 25.0824 12.3412 24.2353C9.87057 21.8353 9.72939 19.8588 9.55292 17.9177C9.41174 15.8706 9.23527 13.9647 9.83527 11.2471C9.94116 10.753 10.1882 10.6118 10.4 10.5765C10.8941 10.4706 11 10.6118 11.0353 10.8941L11 13.9647C11 14.953 11.2823 16.1177 11.8117 17C12.0235 17.353 12.3059 17.6353 12.5529 17.9177L14 20.1059C14.247 20.4588 14.8117 20.1412 14.6 19.753C14.0706 18.6235 13.9294 18.0235 13.8941 17.7059C13.8588 17.2824 13.9647 17.1765 14.1412 17.1059C15.1294 16.7882 15.6941 19.0118 17.1059 20.8118C17.847 21.6588 18.6941 23.3177 18.6235 26.0706Z" fill="black"/>
</svg>
