<svg width="40" height="40" viewBox="0 0 40 40" fill="none" xmlns="http://www.w3.org/2000/svg">
<rect width="40" height="40" rx="20" fill="#FFE7E4"/>
<path d="M23.0218 11.7491C20.7055 11.7491 18.6109 12.7127 17.1091 14.2545H9.06911C8.88002 14.2545 8.72729 14.4073 8.72729 14.5964C8.72729 15.5818 9.14911 16.3891 9.86548 16.9164H9.06911C8.88002 16.9164 8.72729 17.0727 8.72729 17.2582C8.72729 18.2436 9.14911 19.0509 9.86548 19.5782H9.06911C8.88002 19.5818 8.72729 19.7345 8.72729 19.9236C8.72729 20.9091 9.14911 21.7164 9.86548 22.2436H9.06911C8.88002 22.2436 8.72729 22.3964 8.72729 22.5854C8.72729 23.5709 9.14911 24.3782 9.86548 24.9054H9.06911C8.88002 24.9054 8.72729 25.0582 8.72729 25.2473C8.72729 27.0436 10.1164 28.2509 12.1855 28.2509H21.8909C21.96 28.2509 22.0182 28.2254 22.0727 28.1927C22.3855 28.2291 22.7018 28.2509 23.0218 28.2509C27.5709 28.2509 31.2727 24.5491 31.2727 20C31.2727 15.4509 27.5709 11.7491 23.0218 11.7491ZM9.43275 14.9382H16.52C16.0509 15.5382 15.6655 16.2 15.3746 16.9164H12.1855C10.9964 16.9164 9.6182 16.3927 9.43275 14.9382ZM9.43275 17.6H12.1891H15.1309C14.9382 18.2291 14.8291 18.8945 14.7927 19.5782H12.1855C10.9964 19.5818 9.6182 19.0545 9.43275 17.6ZM9.43275 20.2654H14.7855C14.8073 20.9491 14.9091 21.6109 15.0909 22.2436H12.1891C10.9964 22.2436 9.6182 21.7164 9.43275 20.2654ZM9.43275 22.9273H12.1891H15.32C15.5927 23.64 15.96 24.3018 16.4073 24.9054H12.1891C10.9964 24.9054 9.6182 24.3782 9.43275 22.9273ZM12.1855 27.5673C10.9927 27.5673 9.61457 27.04 9.42911 25.5891H12.1855H16.9673C17.7418 26.4254 18.68 27.1091 19.7418 27.5673H12.1855ZM23.0218 27.5673C18.8473 27.5673 15.4546 24.1745 15.4546 20C15.4546 15.8254 18.8509 12.4327 23.0218 12.4327C27.1927 12.4327 30.5891 15.8254 30.5891 20C30.5891 24.1745 27.1964 27.5673 23.0218 27.5673Z" fill="black"/>
<path d="M23.0218 14.6509C20.0727 14.6509 17.6727 17.0509 17.6727 20C17.6727 22.9491 20.0727 25.3491 23.0218 25.3491C25.9709 25.3491 28.3709 22.9491 28.3709 20C28.3709 17.0509 25.9709 14.6509 23.0218 14.6509ZM23.0218 24.6654C20.4509 24.6654 18.3564 22.5709 18.3564 20C18.3564 17.4254 20.4509 15.3345 23.0218 15.3345C25.5964 15.3345 27.6873 17.4291 27.6873 20C27.6873 22.5709 25.5964 24.6654 23.0218 24.6654Z" fill="black"/>
</svg>
