<svg width="40" height="40" viewBox="0 0 40 40" fill="none" xmlns="http://www.w3.org/2000/svg">
<rect width="40" height="40" rx="20" fill="#E4E9FF"/>
<g clip-path="url(#clip0_684_3923)">
<path d="M11.2927 10.3514V12.234" stroke="black" stroke-miterlimit="10" stroke-linecap="round" stroke-linejoin="round"/>
<path d="M10.3514 11.2927H12.2341" stroke="black" stroke-miterlimit="10" stroke-linecap="round" stroke-linejoin="round"/>
<path d="M11.2927 10.3514V12.234" stroke="black" stroke-miterlimit="10" stroke-linecap="round" stroke-linejoin="round"/>
<path d="M10.3514 11.2927H12.2341" stroke="black" stroke-miterlimit="10" stroke-linecap="round" stroke-linejoin="round"/>
<path d="M29.178 26.3539V28.2366" stroke="black" stroke-miterlimit="10" stroke-linecap="round" stroke-linejoin="round"/>
<path d="M28.2367 27.2953H30.1193" stroke="black" stroke-miterlimit="10" stroke-linecap="round" stroke-linejoin="round"/>
<path d="M25.8834 29.6486C25.8834 30.1685 25.4619 30.5899 24.942 30.5899C24.4221 30.5899 24.0007 30.1685 24.0007 29.6486C24.0007 29.1287 24.4221 28.7073 24.942 28.7073C25.4619 28.7073 25.8834 29.1287 25.8834 29.6486Z" stroke="black" stroke-miterlimit="10" stroke-linecap="round" stroke-linejoin="round"/>
<path d="M30.59 22.118C30.59 22.8978 29.9578 23.53 29.178 23.53C28.3981 23.53 27.766 22.8978 27.766 22.118C27.766 21.3382 28.3981 20.7061 29.178 20.7061C29.9578 20.7061 30.59 21.3382 30.59 22.118Z" stroke="black" stroke-miterlimit="10" stroke-linecap="round" stroke-linejoin="round"/>
<path d="M11.2927 15.9993C11.2927 16.5193 10.8712 16.9407 10.3513 16.9407C9.83144 16.9407 9.41003 16.5193 9.41003 15.9993C9.41003 15.4795 9.83144 15.058 10.3513 15.058C10.8712 15.058 11.2927 15.4795 11.2927 15.9993Z" stroke="black" stroke-miterlimit="10" stroke-linecap="round" stroke-linejoin="round"/>
<path d="M18.3527 11.2927C18.3527 12.0725 17.7205 12.7047 16.9407 12.7047C16.1608 12.7047 15.5287 12.0725 15.5287 11.2927C15.5287 10.5129 16.1608 9.88074 16.9407 9.88074C17.7205 9.88074 18.3527 10.5129 18.3527 11.2927Z" stroke="black" stroke-miterlimit="10" stroke-linecap="round" stroke-linejoin="round"/>
<path d="M18.1879 31.5312L8.46875 21.8121L16.5171 15.7896C16.9285 15.4732 17.3917 15.392 17.7587 15.759L24.122 22.1223C24.4889 22.4892 24.5268 23.0715 24.2103 23.4829L18.1879 31.5312Z" stroke="black" stroke-miterlimit="10" stroke-linecap="round" stroke-linejoin="round"/>
<path d="M16.8993 19.2833L10.6097 23.9531" stroke="black" stroke-miterlimit="10" stroke-linecap="round" stroke-linejoin="round"/>
<path d="M16.0469 29.3903L20.7167 23.1007" stroke="black" stroke-miterlimit="10" stroke-linecap="round" stroke-linejoin="round"/>
<path d="M13.3282 26.6717L18.808 21.192" stroke="black" stroke-miterlimit="10" stroke-linecap="round" stroke-linejoin="round"/>
<path d="M22.8783 25.2624L20.7166 23.1008L18.808 21.1921L16.8993 19.2834L14.7377 17.1218" stroke="black" stroke-miterlimit="10" stroke-linecap="round" stroke-linejoin="round"/>
<path d="M19.7213 17.7216L20.4519 16.991C21.0572 16.3857 22.0385 16.3857 22.6438 16.991L23.0092 17.3563C23.6144 17.9615 23.6144 18.9429 23.0092 19.5481L22.2785 20.2788" stroke="black" stroke-miterlimit="10" stroke-linecap="round" stroke-linejoin="round"/>
<path d="M21.9486 16.5902L29.7674 8.77137C30.1709 8.36788 30.8251 8.36788 31.2287 8.77137C31.6321 9.17487 31.6321 9.82911 31.2287 10.2326L23.4098 18.0514" stroke="black" stroke-miterlimit="10" stroke-linecap="round" stroke-linejoin="round"/>
<path d="M29.6753 11.7859L28.2142 10.3248" stroke="black" stroke-miterlimit="10" stroke-linecap="round" stroke-linejoin="round"/>
</g>
<defs>
<clipPath id="clip0_684_3923">
<rect width="24" height="24" fill="white" transform="translate(8 8)"/>
</clipPath>
</defs>
</svg>
