<svg width="34" height="34" viewBox="0 0 34 34" fill="none" xmlns="http://www.w3.org/2000/svg">
<path opacity="0.5" d="M26.9163 8.5H7.08301C5.95584 8.5 4.87483 8.94777 4.0778 9.7448C3.28077 10.5418 2.83301 11.6228 2.83301 12.75V16.6033L12.5188 19.8333H21.4806L31.1663 16.6033V12.75C31.1663 11.6228 30.7186 10.5418 29.9215 9.7448C29.1245 8.94777 28.0435 8.5 26.9163 8.5Z" fill="white"/>
<path d="M14.1663 8.5V7.08333H19.833V8.5H22.6663V7.08333C22.6663 6.33189 22.3678 5.61122 21.8365 5.07986C21.3051 4.54851 20.5845 4.25 19.833 4.25H14.1663C13.4149 4.25 12.6942 4.54851 12.1629 5.07986C11.6315 5.61122 11.333 6.33189 11.333 7.08333V8.5H14.1663ZM12.5188 19.8333L2.83301 16.6033V25.5C2.83413 26.6268 3.28226 27.7072 4.07905 28.504C4.87583 29.3007 5.95618 29.7489 7.08301 29.75H26.9163C28.0432 29.7489 29.1235 29.3007 29.9203 28.504C30.7171 27.7072 31.1652 26.6268 31.1663 25.5V16.6033L21.4806 19.8333H12.5188Z" fill="white"/>
</svg>
