<svg width="34" height="34" viewBox="0 0 34 34" fill="none" xmlns="http://www.w3.org/2000/svg">
<path opacity="0.3" d="M24.0833 8.5H4.25V19.8333H24.0833V8.5ZM14.1667 18.4167C11.815 18.4167 9.91667 16.5183 9.91667 14.1667C9.91667 11.815 11.815 9.91667 14.1667 9.91667C16.5183 9.91667 18.4167 11.815 18.4167 14.1667C18.4167 16.5183 16.5183 18.4167 14.1667 18.4167Z" fill="#A3A3A3"/>
<path d="M24.0837 5.6665H4.25033C2.69199 5.6665 1.41699 6.9415 1.41699 8.49984V19.8332C1.41699 21.3915 2.69199 22.6665 4.25033 22.6665H24.0837C25.642 22.6665 26.917 21.3915 26.917 19.8332V8.49984C26.917 6.9415 25.642 5.6665 24.0837 5.6665ZM4.25033 19.8332V8.49984H24.0837V19.8332H4.25033Z" fill="#A3A3A3"/>
<path d="M14.167 9.9165C11.8153 9.9165 9.91699 11.8148 9.91699 14.1665C9.91699 16.5182 11.8153 18.4165 14.167 18.4165C16.5187 18.4165 18.417 16.5182 18.417 14.1665C18.417 11.8148 16.5187 9.9165 14.167 9.9165ZM32.5837 9.9165V25.4998C32.5837 27.0582 31.3087 28.3332 29.7503 28.3332H5.66699V25.4998H29.7503V9.9165H32.5837Z" fill="#A3A3A3"/>
</svg>
