<svg width="34" height="34" viewBox="0 0 34 34" fill="none" xmlns="http://www.w3.org/2000/svg">
<path opacity="0.3" d="M16.292 4.25C10.427 4.25 5.66699 9.01 5.66699 14.875C5.66699 20.74 10.427 25.5 16.292 25.5H18.417V28.7583C23.5737 25.5 26.917 20.145 26.917 14.875C26.917 9.01 22.157 4.25 16.292 4.25ZM17.7087 23.375H14.8753V20.5417H17.7087V23.375ZM17.7087 18.4167H14.8753C14.8753 13.8125 19.1253 14.1667 19.1253 11.3333C19.1253 9.775 17.8503 8.5 16.292 8.5C14.7337 8.5 13.4587 9.775 13.4587 11.3333H10.6253C10.6253 8.2025 13.1612 5.66667 16.292 5.66667C19.4228 5.66667 21.9587 8.2025 21.9587 11.3333C21.9587 14.875 17.7087 15.2292 17.7087 18.4167Z" fill="#A3A3A3"/>
<path d="M16.2913 1.4165C8.86801 1.4165 2.83301 7.4515 2.83301 14.8748C2.83301 22.0573 8.48551 27.9507 15.583 28.319V33.419L17.6088 32.4415C24.8763 28.9423 29.7497 21.8873 29.7497 14.8748C29.7497 7.4515 23.7147 1.4165 16.2913 1.4165ZM18.4163 28.7582V25.4998H16.2913C10.4263 25.4998 5.66634 20.7398 5.66634 14.8748C5.66634 9.00984 10.4263 4.24984 16.2913 4.24984C22.1563 4.24984 26.9163 9.00984 26.9163 14.8748C26.9163 20.159 23.573 25.514 18.4163 28.7582ZM14.8747 20.5415H17.708V23.3748H14.8747V20.5415ZM16.2913 5.6665C13.1605 5.6665 10.6247 8.20234 10.6247 11.3332H13.458C13.458 9.77484 14.733 8.49984 16.2913 8.49984C17.8497 8.49984 19.1247 9.77484 19.1247 11.3332C19.1247 14.1665 14.8747 13.8123 14.8747 18.4165H17.708C17.708 15.229 21.958 14.8748 21.958 11.3332C21.958 8.20234 19.4222 5.6665 16.2913 5.6665Z" fill="#A3A3A3"/>
</svg>
