<svg width="34" height="34" viewBox="0 0 34 34" fill="none" xmlns="http://www.w3.org/2000/svg">
<g clip-path="url(#clip0_849_52)">
<path d="M19.0874 5.96509V8.35107C19.0874 11.3037 16.6716 13.7195 13.719 13.7195C10.7664 13.7195 8.35059 11.3037 8.35059 8.35107V5.96509C8.35059 3.01247 10.7664 0.59668 13.719 0.59668C15.1983 0.59668 16.5344 1.19912 17.5127 2.17144C18.4849 3.1496 19.0874 4.48576 19.0874 5.96509Z" fill="#CED0D1"/>
<path d="M13.7194 22.0704L9.54395 16.1055H17.8949L13.7194 22.0704Z" fill="#A3A3A3"/>
<path d="M13.7196 22.0704L17.8951 16.1055H19.0881C23.0428 16.1055 26.2459 19.3086 26.2459 23.2633V25.6493V34.0002H21.474H5.96531H1.19336V25.6494V23.2634C1.19336 19.3086 4.39653 16.1055 8.35122 16.1055H9.54421L13.7196 22.0704Z" fill="#A3A3A3"/>
<path d="M1.19336 23.2632V25.6491V34H5.96531V16.521C3.18621 17.504 1.19336 20.1464 1.19336 23.2632Z" fill="#CED0D1"/>
<path d="M26.2456 23.2632V25.6491V34H21.4736V16.521C24.2527 17.504 26.2456 20.1464 26.2456 23.2632Z" fill="#CED0D1"/>
<path d="M25.0522 33.4033C29.3349 33.4033 32.8066 29.9316 32.8066 25.6489C32.8066 21.3663 29.3349 17.8945 25.0522 17.8945C20.7696 17.8945 17.2979 21.3663 17.2979 25.6489C17.2979 29.9316 20.7696 33.4033 25.0522 33.4033Z" fill="#CED0D1"/>
<path d="M24.6646 22.8808L22.7832 24.867L23.2266 25.3351L24.5727 23.9139V28.7425H25.1999V23.914L26.546 25.3351L26.9894 24.867L25.108 22.8808C24.9854 22.7513 24.7872 22.7513 24.6646 22.8808Z" fill="#A3A3A3"/>
</g>
<defs>
<clipPath id="clip0_849_52">
<rect width="34" height="34" fill="white"/>
</clipPath>
</defs>
</svg>
