<svg width="35" height="35" viewBox="0 0 35 35" fill="none" xmlns="http://www.w3.org/2000/svg">
<path opacity="0.3" fill-rule="evenodd" clip-rule="evenodd" d="M27.417 16.0833C28.1318 16.0831 28.8203 16.3531 29.3444 16.8391C29.8686 17.3252 30.1896 17.9914 30.2432 18.7042L30.2503 18.9167V27.4167C30.2506 28.1315 29.9806 28.82 29.4945 29.3441C29.0085 29.8682 28.3423 30.1893 27.6295 30.2429L27.417 30.25H21.7503C21.0355 30.2502 20.347 29.9803 19.8229 29.4942C19.2987 29.0082 18.9777 28.342 18.9241 27.6292L18.917 27.4167V18.9167C18.9168 18.2018 19.1867 17.5134 19.6728 16.9892C20.1588 16.4651 20.825 16.144 21.5378 16.0904L21.7503 16.0833H27.417ZM27.417 4.75C28.1684 4.75 28.8891 5.04851 29.4205 5.57986C29.9518 6.11122 30.2503 6.83189 30.2503 7.58333V10.4167C30.2503 11.1681 29.9518 11.8888 29.4205 12.4201C28.8891 12.9515 28.1684 13.25 27.417 13.25H21.7503C20.9989 13.25 20.2782 12.9515 19.7469 12.4201C19.2155 11.8888 18.917 11.1681 18.917 10.4167V7.58333C18.917 6.83189 19.2155 6.11122 19.7469 5.57986C20.2782 5.04851 20.9989 4.75 21.7503 4.75H27.417Z" fill="#636363"/>
<path fill-rule="evenodd" clip-rule="evenodd" d="M13.25 4.75C14.0014 4.75 14.7221 5.04851 15.2535 5.57986C15.7848 6.11122 16.0833 6.83189 16.0833 7.58333V16.0833C16.0833 16.8348 15.7848 17.5554 15.2535 18.0868C14.7221 18.6182 14.0014 18.9167 13.25 18.9167H7.58333C6.83189 18.9167 6.11122 18.6182 5.57986 18.0868C5.04851 17.5554 4.75 16.8348 4.75 16.0833V7.58333C4.75 6.83189 5.04851 6.11122 5.57986 5.57986C6.11122 5.04851 6.83189 4.75 7.58333 4.75H13.25Z" fill="#636363"/>
<path opacity="0.3" fill-rule="evenodd" clip-rule="evenodd" d="M13.25 21.75C14.0014 21.75 14.7221 22.0485 15.2535 22.5799C15.7848 23.1112 16.0833 23.8319 16.0833 24.5833V27.4167C16.0833 28.1681 15.7848 28.8888 15.2535 29.4201C14.7221 29.9515 14.0014 30.25 13.25 30.25H7.58333C6.83189 30.25 6.11122 29.9515 5.57986 29.4201C5.04851 28.8888 4.75 28.1681 4.75 27.4167V24.5833C4.75 23.8319 5.04851 23.1112 5.57986 22.5799C6.11122 22.0485 6.83189 21.75 7.58333 21.75H13.25Z" fill="#636363"/>
</svg>
