<svg width="33" height="34" viewBox="0 0 33 34" fill="none" xmlns="http://www.w3.org/2000/svg">
<path d="M18.5591 28.2573C17.9873 28.3467 17.4026 28.3913 16.8049 28.3913C15.1603 28.3916 13.5352 28.0358 12.0412 27.3484C10.5472 26.661 9.21971 25.6582 8.15006 24.409C7.08042 23.1598 6.29394 21.6938 5.84468 20.1118C5.39542 18.5298 5.29404 16.8692 5.54749 15.2443C4.84891 13.9156 4.59364 12.3982 4.81899 10.914C5.04435 9.42981 5.73851 8.0566 6.80002 6.99509C7.86153 5.93358 9.23474 5.23941 10.7189 5.01406C12.2031 4.78871 13.7205 5.04398 15.0493 5.74256C15.6228 5.65322 16.2081 5.60855 16.8049 5.60855C18.4494 5.60825 20.0746 5.96404 21.5686 6.65148C23.0626 7.33891 24.39 8.34169 25.4597 9.59088C26.5293 10.8401 27.3158 12.3061 27.7651 13.8881C28.2143 15.4701 28.3157 17.1306 28.0622 18.7556C28.7608 20.0843 29.0161 21.6017 28.7907 23.0859C28.5654 24.5701 27.8712 25.9433 26.8097 27.0048C25.7482 28.0663 24.375 28.7605 22.8908 28.9858C21.4066 29.2112 19.8879 28.9559 18.5591 28.2573ZM16.8759 23.9098H16.8223C20.6712 23.9098 22.589 22.0524 22.589 19.5637C22.589 17.9582 21.8506 16.2521 18.9357 15.5995L16.2782 15.0098C15.2664 14.7793 14.1044 14.4737 14.1044 13.5155C14.1044 12.5573 14.9353 11.8899 16.4149 11.8899C19.4034 11.8899 19.1314 13.9377 20.6109 13.9377C21.3829 13.9377 22.0757 13.4793 22.0757 12.6913C22.0757 10.8553 19.1314 9.47492 16.64 9.47492C13.9316 9.47492 11.0475 10.6261 11.0475 13.6884C11.0475 15.1599 11.5756 16.7306 14.4783 17.4583L18.082 18.3575C19.1756 18.6282 19.4463 19.2407 19.4463 19.7942C19.4463 20.7149 18.5297 21.6141 16.8759 21.6141C13.6367 21.6141 14.091 19.1254 12.3542 19.1254C11.5769 19.1254 11.01 19.6588 11.01 20.4267C11.01 21.9197 12.8219 23.9098 16.8759 23.9098Z" fill="#6E6E6E"/>
</svg>
